<svg xmlns="http://www.w3.org/2000/svg" viewBox="0 0 512 512">
<rect width="512" height="512" rx="116" fill="#161616"/>
<g transform="translate(149.3,106.0) scale(0.3904)"><g transform="translate(-365.29,-93.63)"><path d="M 727 95.334 C 714.772 98.912, 710.656 100.661, 705.792 104.343 C 702.883 106.544, 698.478 108.952, 696.002 109.693 C 693.526 110.435, 689.025 112.559, 686 114.414 C 682.975 116.270, 677.256 118.749, 673.291 119.924 C 669.326 121.099, 664.762 123.171, 663.148 124.529 C 661.535 125.886, 656.953 128.324, 652.966 129.947 C 648.979 131.569, 644.492 134.071, 642.994 135.505 C 641.497 136.940, 638.073 138.773, 635.386 139.578 C 632.699 140.383, 627.909 142.637, 624.743 144.586 C 621.576 146.536, 615.726 149.028, 611.743 150.124 C 607.759 151.219, 602.925 153.192, 601 154.508 C 599.075 155.824, 594.243 158.222, 590.262 159.836 C 586.281 161.451, 581.428 164.173, 579.477 165.886 C 577.526 167.599, 575.159 169.010, 574.215 169.022 C 571.690 169.054, 564.219 172.638, 560.959 175.381 C 559.399 176.694, 554.846 178.763, 550.842 179.979 C 546.837 181.196, 541.747 183.491, 539.531 185.079 C 537.314 186.668, 533.157 188.662, 530.292 189.510 C 527.428 190.358, 523.153 192.522, 520.792 194.318 C 518.432 196.115, 513.674 198.638, 510.220 199.925 C 506.766 201.213, 502.368 203.516, 500.446 205.043 C 498.524 206.570, 493.759 208.790, 489.856 209.975 C 485.953 211.161, 481.117 213.218, 479.108 214.547 C 477.099 215.877, 472.117 218.100, 468.036 219.488 C 463.956 220.876, 459.691 222.852, 458.559 223.881 C 455.796 226.389, 452.797 227.871, 446.996 229.594 C 444.331 230.385, 440.332 232.552, 438.109 234.409 C 435.686 236.433, 431.270 238.635, 427.074 239.909 C 423.227 241.078, 417.924 243.351, 415.289 244.962 C 412.655 246.572, 407.575 248.853, 404 250.030 C 400.425 251.208, 396.058 253.265, 394.296 254.601 C 392.534 255.938, 389.095 257.888, 386.655 258.934 C 384.214 259.980, 381.381 262.069, 380.359 263.577 C 379.336 265.085, 376.826 267.935, 374.779 269.909 C 372.437 272.170, 370.266 275.722, 368.919 279.500 C 366.925 285.089, 366.755 287.794, 366.438 319 C 366.251 337.425, 365.864 356.100, 365.578 360.500 C 365.292 364.900, 365.471 385.825, 365.975 407 C 366.850 443.772, 367.791 454.528, 370.532 459.091 C 373.217 463.560, 379.031 469.441, 382.500 471.196 C 384.700 472.309, 387.676 474.321, 389.113 475.666 C 390.550 477.011, 394.375 479.181, 397.613 480.488 C 400.851 481.795, 405.155 484.243, 407.177 485.927 C 409.199 487.612, 414.060 490.147, 417.979 491.560 C 421.897 492.974, 426.734 495.237, 428.727 496.590 C 430.721 497.942, 435.450 499.990, 439.237 501.141 C 443.024 502.291, 447.396 504.304, 448.954 505.614 C 450.511 506.925, 455.047 509.324, 459.034 510.947 C 463.021 512.569, 467.457 515.019, 468.891 516.392 C 470.326 517.764, 474.650 520.181, 478.500 521.764 C 482.350 523.347, 487.265 525.857, 489.422 527.343 C 491.579 528.829, 495.703 530.730, 498.585 531.568 C 501.468 532.406, 505.553 534.332, 507.663 535.848 C 509.773 537.364, 514.344 539.660, 517.821 540.950 C 521.297 542.241, 526.163 544.967, 528.634 547.009 C 531.104 549.051, 535.010 551.281, 537.313 551.966 C 539.616 552.651, 544.015 554.758, 547.090 556.648 C 550.164 558.539, 555.385 560.905, 558.692 561.907 C 561.999 562.908, 566.459 564.925, 568.602 566.390 C 570.746 567.855, 575.424 569.961, 578.998 571.070 C 582.835 572.262, 586.741 574.295, 588.537 576.036 C 590.209 577.657, 594.364 580.075, 597.770 581.410 C 601.175 582.744, 605.275 584.772, 606.881 585.915 C 608.487 587.059, 612.666 589.280, 616.169 590.851 C 624.672 594.667, 629 599.569, 629 605.387 C 629 612.793, 626.224 615.554, 611.064 623.225 C 603.699 626.951, 596.914 630, 595.985 630 C 595.056 630, 591.228 632.015, 587.477 634.479 C 583.727 636.942, 579.048 639.459, 577.079 640.073 C 575.111 640.686, 571.215 642.722, 568.423 644.596 C 565.631 646.471, 560.906 648.718, 557.923 649.589 C 554.940 650.460, 549.800 652.666, 546.500 654.492 C 543.200 656.318, 537.904 658.723, 534.731 659.837 C 531.558 660.951, 527.246 663.221, 525.149 664.882 C 523.051 666.544, 518.825 668.842, 515.756 669.990 C 512.688 671.138, 508.596 673.334, 506.662 674.871 C 504.728 676.408, 499.755 678.672, 495.609 679.903 C 491.464 681.133, 486.456 683.237, 484.479 684.579 C 482.503 685.920, 478.108 687.953, 474.712 689.097 C 467.324 691.586, 465.164 692.646, 462.433 695.128 C 461.296 696.160, 457.613 698.084, 454.249 699.403 C 450.885 700.721, 446.407 703.186, 444.299 704.880 C 442.190 706.575, 437.200 709.071, 433.210 710.429 C 429.219 711.786, 424.600 713.861, 422.945 715.039 C 421.290 716.217, 416.373 718.276, 412.018 719.613 C 407.663 720.951, 402.805 723.134, 401.223 724.466 C 399.640 725.798, 395.275 728.043, 391.521 729.456 C 387.504 730.968, 382.969 733.618, 380.494 735.899 C 378.183 738.029, 375.366 740.066, 374.235 740.425 C 371.294 741.359, 369.533 744.520, 367.555 752.417 C 365.534 760.486, 365.983 765.212, 369.489 772.779 C 371.712 777.578, 372.541 778.337, 378.854 781.363 C 382.664 783.189, 386.898 785.561, 388.264 786.636 C 389.630 787.710, 393.342 789.469, 396.514 790.545 C 399.685 791.620, 404.169 794.162, 406.478 796.193 C 408.787 798.224, 413.057 800.790, 415.966 801.895 C 418.875 803, 422.906 805.049, 424.923 806.446 C 426.940 807.844, 431.270 810.045, 434.545 811.336 C 437.820 812.628, 442.262 814.888, 444.416 816.360 C 446.569 817.831, 450.582 819.815, 453.333 820.768 C 456.084 821.720, 459.775 823.970, 461.534 825.766 C 463.293 827.562, 467.599 830.196, 471.103 831.620 C 474.607 833.044, 478.854 835.421, 480.541 836.902 C 482.228 838.383, 485.159 840.168, 487.054 840.869 C 488.949 841.569, 494.100 843.879, 498.500 846.001 C 502.900 848.124, 508.904 850.617, 511.841 851.541 C 514.779 852.465, 518.712 854.564, 520.581 856.206 C 525.665 860.669, 531.500 862, 545.977 862 C 560.461 862, 567.259 860.467, 572.264 856.074 C 574.105 854.457, 578.566 852.320, 582.613 851.115 C 586.524 849.950, 591.383 847.872, 593.410 846.496 C 595.437 845.121, 600.011 843.054, 603.574 841.903 C 607.137 840.752, 612.334 838.240, 615.123 836.322 C 617.912 834.403, 622.512 832.063, 625.347 831.120 C 628.181 830.178, 632.584 827.807, 635.132 825.852 C 637.680 823.897, 641.955 821.755, 644.632 821.093 C 647.309 820.431, 652.183 818.505, 655.462 816.813 C 658.741 815.121, 664.542 812.676, 668.352 811.380 C 672.162 810.084, 676.679 807.958, 678.390 806.655 C 680.100 805.352, 684.294 803.268, 687.709 802.024 C 691.124 800.780, 695.699 798.237, 697.876 796.374 C 700.168 794.413, 704.544 792.149, 708.270 790.998 C 711.809 789.905, 716.260 787.956, 718.159 786.667 C 720.059 785.377, 724.963 783.044, 729.057 781.482 C 733.151 779.919, 738.156 777.444, 740.180 775.980 C 742.203 774.517, 746.703 772.299, 750.180 771.051 C 753.656 769.804, 757.865 767.488, 759.533 765.906 C 761.238 764.288, 765.821 761.921, 769.999 760.500 C 774.088 759.110, 779.023 756.905, 780.967 755.601 C 782.910 754.298, 787.650 752.283, 791.500 751.123 C 795.350 749.964, 800.448 747.684, 802.829 746.056 C 805.210 744.428, 809.485 742.410, 812.329 741.571 C 815.276 740.702, 819.090 738.574, 821.198 736.622 C 823.415 734.569, 827.532 732.321, 831.481 731.006 C 835.103 729.801, 839.400 727.693, 841.030 726.321 C 842.660 724.950, 847.353 722.534, 851.460 720.953 C 855.566 719.371, 860.630 716.967, 862.713 715.610 C 864.796 714.253, 869.118 712.395, 872.319 711.480 C 875.519 710.566, 879.617 708.519, 881.425 706.932 C 883.233 705.344, 887.637 702.733, 891.212 701.129 C 897.059 698.506, 898.265 697.424, 903.219 690.356 C 906.247 686.035, 909.349 680.700, 910.112 678.500 C 911.253 675.211, 911.500 659.481, 911.500 590 C 911.500 499.636, 911.475 499.149, 906.560 493.849 C 905.318 492.508, 903.047 489.517, 901.515 487.202 C 899.783 484.585, 896.603 481.789, 893.114 479.814 C 890.026 478.067, 886.150 475.643, 884.500 474.428 C 882.850 473.213, 878.205 471.043, 874.177 469.605 C 870.149 468.167, 865.424 465.924, 863.677 464.622 C 861.930 463.319, 857.575 461.295, 854 460.125 C 850.425 458.955, 845.925 456.616, 844 454.928 C 842.075 453.241, 838.250 450.828, 835.500 449.566 C 832.750 448.305, 828.086 445.632, 825.135 443.626 C 822.184 441.621, 818.584 439.704, 817.135 439.365 C 815.686 439.027, 811.350 437.056, 807.500 434.984 C 803.650 432.913, 797.990 430.504, 794.922 429.631 C 791.854 428.758, 787.579 426.833, 785.422 425.353 C 783.265 423.874, 777.939 421.173, 773.586 419.351 C 769.233 417.530, 764.733 415.183, 763.586 414.137 C 761.031 411.806, 755.610 409, 753.662 409 C 752.871 409, 749.975 407.452, 747.225 405.561 C 744.475 403.669, 739.516 401.232, 736.205 400.145 C 729.158 397.832, 726.246 396.416, 723.500 393.966 C 722.400 392.985, 718.713 391.058, 715.308 389.684 C 711.902 388.311, 707.402 385.830, 705.308 384.170 C 703.213 382.511, 698.749 380.264, 695.388 379.176 C 692.026 378.089, 687.507 376.083, 685.347 374.719 C 683.186 373.355, 678.308 371.120, 674.507 369.753 C 667.075 367.080, 653.985 357.072, 654.016 354.086 C 654.025 353.214, 655.038 350.700, 656.266 348.500 C 657.943 345.497, 660.007 343.752, 664.547 341.500 C 667.873 339.850, 672.823 337.089, 675.547 335.364 C 678.271 333.640, 682.186 331.693, 684.247 331.038 C 686.308 330.383, 689.838 328.306, 692.092 326.423 C 694.612 324.318, 698.944 322.167, 703.345 320.836 C 707.280 319.646, 712.085 317.629, 714.022 316.354 C 715.959 315.079, 720.684 312.954, 724.522 311.632 C 728.360 310.310, 734.174 307.602, 737.441 305.614 C 740.709 303.626, 744.084 301.996, 744.941 301.991 C 746.890 301.979, 756.158 296.720, 757.875 294.651 C 758.577 293.805, 762.155 292.114, 765.826 290.892 C 769.497 289.671, 774.525 287.451, 777 285.958 C 779.475 284.465, 784.650 282.232, 788.500 280.995 C 792.350 279.759, 796.966 277.654, 798.757 276.317 C 800.548 274.981, 804.574 273.007, 807.704 271.930 C 813.815 269.827, 818.045 267.446, 819.251 265.430 C 819.664 264.739, 823.264 262.953, 827.251 261.461 C 831.238 259.969, 836.541 257.470, 839.035 255.908 C 841.529 254.346, 846.525 252.155, 850.137 251.039 C 853.749 249.924, 858.368 247.882, 860.400 246.503 C 862.432 245.124, 867.111 243.045, 870.798 241.884 C 874.484 240.723, 879.266 238.389, 881.425 236.699 C 883.583 235.008, 888.295 232.556, 891.894 231.249 C 900.064 228.284, 908.470 220.572, 910.150 214.500 C 911.662 209.037, 911.582 195.150, 910.006 189.520 C 909.294 186.977, 907.539 183.831, 906.106 182.528 C 897.851 175.024, 893.464 171.945, 888.289 170.019 C 885.105 168.835, 881.150 166.585, 879.500 165.019 C 877.850 163.453, 873.712 161.049, 870.304 159.678 C 866.896 158.306, 862.621 156.074, 860.804 154.718 C 858.987 153.362, 854.800 151.264, 851.500 150.057 C 848.200 148.849, 844.375 146.793, 843 145.487 C 841.625 144.181, 837.800 141.884, 834.500 140.382 C 831.200 138.881, 826.250 135.985, 823.500 133.948 C 820.750 131.911, 816.700 129.688, 814.500 129.008 C 812.300 128.328, 808.439 126.475, 805.919 124.890 C 803.400 123.305, 798.675 121.096, 795.419 119.981 C 792.164 118.866, 787.025 116.437, 784 114.583 C 780.975 112.730, 776.700 110.466, 774.500 109.553 C 772.300 108.641, 769.375 106.851, 768 105.576 C 763.734 101.622, 760.754 100.154, 751.620 97.507 C 740.587 94.309, 732.836 93.625, 727 95.334 M 573 383.706 C 572.175 384.008, 570.569 385.100, 569.430 386.132 C 568.292 387.165, 563.913 389.267, 559.700 390.803 C 555.486 392.339, 550.839 394.561, 549.373 395.741 C 547.906 396.921, 544.185 398.843, 541.103 400.011 C 538.021 401.180, 531.900 403.874, 527.500 405.998 C 523.100 408.122, 517.163 410.595, 514.306 411.492 C 511.450 412.389, 507.625 414.215, 505.806 415.549 C 503.988 416.883, 501.234 418.484, 499.687 419.107 C 498.140 419.730, 494.540 421.504, 491.687 423.050 C 488.834 424.595, 484.025 427.044, 481 428.490 C 477.975 429.937, 474.825 431.480, 474 431.919 C 473.175 432.359, 472.500 434.003, 472.500 435.573 C 472.500 437.971, 473.380 438.951, 478 441.695 C 481.025 443.492, 487.148 446.720, 491.607 448.869 C 496.066 451.019, 500.599 453.726, 501.680 454.886 C 502.760 456.047, 507.602 458.549, 512.439 460.448 C 517.275 462.347, 521.968 464.554, 522.866 465.352 C 523.765 466.151, 528.100 468.024, 532.500 469.516 C 536.900 471.008, 541.457 473.104, 542.628 474.174 C 543.798 475.244, 548.019 477.447, 552.008 479.070 C 555.997 480.694, 560.735 483.316, 562.537 484.898 C 564.339 486.480, 568.893 488.775, 572.657 489.997 C 576.420 491.220, 581.095 493.293, 583.045 494.604 C 584.995 495.915, 589.465 498.114, 592.978 499.491 C 596.491 500.868, 600.296 502.866, 601.433 503.931 C 602.570 504.996, 606.650 507.274, 610.500 508.995 C 614.350 510.715, 618.850 513.413, 620.500 514.990 C 622.150 516.568, 626.650 519.027, 630.500 520.456 C 634.350 521.885, 638.771 523.980, 640.324 525.112 C 641.878 526.244, 646.328 528.251, 650.214 529.573 C 654.100 530.895, 658.725 533.078, 660.491 534.425 C 662.257 535.773, 666.902 538.305, 670.813 540.054 C 674.723 541.803, 678.622 544.300, 679.476 545.604 C 680.330 546.908, 682.935 548.940, 685.265 550.119 C 687.594 551.299, 691.189 553.780, 693.253 555.632 C 695.317 557.484, 697.452 559, 697.997 559 C 698.542 559, 700.372 560.913, 702.064 563.250 C 705.997 568.682, 708.326 569.931, 714.500 569.921 C 720.460 569.911, 725.800 568.153, 730.301 564.719 C 732.115 563.336, 736.952 561.218, 741.049 560.012 C 745.147 558.806, 750.525 556.562, 753 555.026 C 755.475 553.489, 759.924 551.449, 762.886 550.491 C 765.848 549.533, 770.002 547.186, 772.117 545.276 C 774.417 543.197, 778.413 541.039, 782.066 539.902 C 785.424 538.857, 790.945 536.477, 794.336 534.612 C 797.726 532.748, 802.300 530.670, 804.500 529.994 C 809.512 528.454, 821.759 521.819, 824.750 519.025 C 828.461 515.557, 827.568 514.132, 819.283 510.304 C 815.038 508.343, 810.426 505.905, 809.033 504.887 C 807.640 503.868, 803.836 502.125, 800.581 501.013 C 797.325 499.901, 792.600 497.679, 790.081 496.074 C 787.561 494.470, 782.825 492.225, 779.555 491.086 C 776.285 489.946, 772.235 487.696, 770.555 486.084 C 768.875 484.473, 764.420 481.930, 760.655 480.433 C 756.891 478.936, 752.592 476.686, 751.103 475.433 C 749.613 474.180, 745.571 472.203, 742.120 471.040 C 738.669 469.878, 733.579 467.368, 730.810 465.463 C 728.041 463.558, 725.133 462, 724.348 462 C 722.191 462, 714.827 458.086, 711.986 455.429 C 710.603 454.136, 707.453 452.372, 704.986 451.509 C 702.519 450.647, 697.954 448.377, 694.843 446.467 C 691.732 444.556, 686.107 442.050, 682.343 440.897 C 678.579 439.745, 674.150 437.796, 672.500 436.566 C 670.850 435.336, 666.273 433.105, 662.329 431.608 C 658.385 430.111, 654.063 427.791, 652.725 426.452 C 651.387 425.114, 647.864 422.939, 644.896 421.618 C 641.928 420.298, 637.838 417.889, 635.807 416.264 C 633.777 414.639, 629.277 412.282, 625.807 411.025 C 622.338 409.768, 618.232 407.846, 616.682 406.754 C 615.132 405.661, 610.255 403.268, 605.844 401.435 C 601.433 399.603, 596.373 396.996, 594.599 395.643 C 592.824 394.290, 589.653 392.464, 587.552 391.586 C 585.450 390.708, 581.990 388.417, 579.863 386.495 C 575.888 382.904, 575.559 382.771, 573 383.706" fill="#FFFFFF"/></g></g>
</svg>